<svg id="visual" viewBox="0 0 900 600" width="900" height="600" xmlns="http://www.w3.org/2000/svg" xmlns:xlink="http://www.w3.org/1999/xlink" version="1.1"><path d="M0 384L21.5 388.3C43 392.7 86 401.3 128.8 410.2C171.7 419 214.3 428 257.2 434.3C300 440.7 343 444.3 385.8 436.5C428.7 428.7 471.3 409.3 514.2 402.7C557 396 600 402 642.8 407.2C685.7 412.3 728.3 416.7 771.2 418.5C814 420.3 857 419.7 878.5 419.3L900 419L900 601L878.5 601C857 601 814 601 771.2 601C728.3 601 685.7 601 642.8 601C600 601 557 601 514.2 601C471.3 601 428.7 601 385.8 601C343 601 300 601 257.2 601C214.3 601 171.7 601 128.8 601C86 601 43 601 21.5 601L0 601Z" fill="#fa7268"></path><path d="M0 415L21.5 413.7C43 412.3 86 409.7 128.8 406.3C171.7 403 214.3 399 257.2 407.7C300 416.3 343 437.7 385.8 444.5C428.7 451.3 471.3 443.7 514.2 438.2C557 432.7 600 429.3 642.8 425.5C685.7 421.7 728.3 417.3 771.2 413.3C814 409.3 857 405.7 878.5 403.8L900 402L900 601L878.5 601C857 601 814 601 771.2 601C728.3 601 685.7 601 642.8 601C600 601 557 601 514.2 601C471.3 601 428.7 601 385.8 601C343 601 300 601 257.2 601C214.3 601 171.7 601 128.8 601C86 601 43 601 21.5 601L0 601Z" fill="#ef5f67"></path><path d="M0 487L21.5 479.5C43 472 86 457 128.8 449.7C171.7 442.3 214.3 442.7 257.2 448.7C300 454.7 343 466.3 385.8 473.3C428.7 480.3 471.3 482.7 514.2 484.5C557 486.3 600 487.7 642.8 483.2C685.7 478.7 728.3 468.3 771.2 469.2C814 470 857 482 878.5 488L900 494L900 601L878.5 601C857 601 814 601 771.2 601C728.3 601 685.7 601 642.8 601C600 601 557 601 514.2 601C471.3 601 428.7 601 385.8 601C343 601 300 601 257.2 601C214.3 601 171.7 601 128.8 601C86 601 43 601 21.5 601L0 601Z" fill="#e34c67"></path><path d="M0 542L21.5 539.7C43 537.3 86 532.7 128.8 524.5C171.7 516.3 214.3 504.7 257.2 505.3C300 506 343 519 385.8 526.5C428.7 534 471.3 536 514.2 530.2C557 524.3 600 510.7 642.8 510.8C685.7 511 728.3 525 771.2 527.8C814 530.7 857 522.3 878.5 518.2L900 514L900 601L878.5 601C857 601 814 601 771.2 601C728.3 601 685.7 601 642.8 601C600 601 557 601 514.2 601C471.3 601 428.7 601 385.8 601C343 601 300 601 257.2 601C214.3 601 171.7 601 128.8 601C86 601 43 601 21.5 601L0 601Z" fill="#d53867"></path><path d="M0 544L21.5 548.7C43 553.3 86 562.7 128.8 562.2C171.7 561.7 214.3 551.3 257.2 545.8C300 540.3 343 539.7 385.8 538.2C428.7 536.7 471.3 534.3 514.2 537.3C557 540.3 600 548.7 642.8 547.5C685.7 546.3 728.3 535.7 771.2 536C814 536.3 857 547.7 878.5 553.3L900 559L900 601L878.5 601C857 601 814 601 771.2 601C728.3 601 685.7 601 642.8 601C600 601 557 601 514.2 601C471.3 601 428.7 601 385.8 601C343 601 300 601 257.2 601C214.3 601 171.7 601 128.8 601C86 601 43 601 21.5 601L0 601Z" fill="#c62368"></path></svg>